<svg version="1.1" viewBox="0.0 0.0 19200.0 19200.0" fill="none" stroke="none" stroke-linecap="square" stroke-miterlimit="10" xmlns:xlink="http://www.w3.org/1999/xlink" xmlns="http://www.w3.org/2000/svg"><clipPath id="p.0"><path d="m0 0l19200.0 0l0 19200.0l-19200.0 0l0 -19200.0z" clip-rule="nonzero"/></clipPath><g clip-path="url(#p.0)"><path fill="#000000" fill-opacity="0.0" d="m0 0l19200.0 0l0 19200.0l-19200.0 0z" fill-rule="evenodd"/><path fill="#323232" d="m2699.5405 17848.74l1773.685 -8563.785l5681.9883 2650.0186l1390.0 4753.8135l2567.7334 -277.7422l-30.066406 741.98047l1002.9961 1292.4219l-3214.544 895.3926l-9017.4 -63.970703z" fill-rule="evenodd"/><path stroke="#323232" stroke-width="1.0" stroke-linejoin="round" stroke-linecap="butt" d="m2699.5405 17848.74l1773.685 -8563.785l5681.9883 2650.0186l1390.0 4753.8135l2567.7334 -277.7422l-30.066406 741.98047l1002.9961 1292.4219l-3214.544 895.3926l-9017.4 -63.970703z" fill-rule="evenodd"/><path fill="#999999" d="m5471.7275 5689.047l2479.5747 -1056.4956l716.7378 -157.18408l2816.6934 520.82715l2231.0664 1193.0303l481.64355 553.00244l260.70215 -2543.3477l303.13867 984.15967l338.09766 2607.8213l-1968.0791 1117.1025l-8065.265 -1686.1274z" fill-rule="evenodd"/><path stroke="#666666" stroke-width="1.0" stroke-linejoin="round" stroke-linecap="butt" d="m5471.7275 5689.047l2479.5747 -1056.4956l716.7378 -157.18408l2816.6934 520.82715l2231.0664 1193.0303l481.64355 553.00244l260.70215 -2543.3477l303.13867 984.15967l338.09766 2607.8213l-1968.0791 1117.1025l-8065.265 -1686.1274z" fill-rule="evenodd"/><path fill="#1c1c1c" d="m9317.1 13010.263l1690.1055 6358.4795l4784.0 80.0l-6432.0 -9247.999l-75.96875 -837.73535z" fill-rule="evenodd"/><path stroke="#1c1c1c" stroke-width="1.0" stroke-linejoin="round" stroke-linecap="butt" d="m9317.1 13010.263l1690.1055 6358.4795l4784.0 80.0l-6432.0 -9247.999l-75.96875 -837.73535z" fill-rule="evenodd"/><path fill="#ffd966" d="m7393.223 7811.3013l-1949.1758 1447.0386l4747.3354 2297.1484l2271.755 5196.8047l1732.7715 -157.33398l256.417 -4644.9336l819.4414 -1658.0957l-254.83691 -1407.8574z" fill-rule="evenodd"/><path stroke="#ffe599" stroke-width="1.0" stroke-linejoin="round" stroke-linecap="butt" d="m7393.223 7811.3013l-1949.1758 1447.0386l4747.3354 2297.1484l2271.755 5196.8047l1732.7715 -157.33398l256.417 -4644.9336l819.4414 -1658.0957l-254.83691 -1407.8574z" fill-rule="evenodd"/><path fill="#d9d9d9" d="m14984.438 8972.937l866.6797 1808.0527l-817.8613 1179.0186l-359.34863 4621.801l-800.1494 728.03906l-21.853516 -5195.0703l1484.5332 -2157.8408z" fill-rule="evenodd"/><path stroke="#d9d9d9" stroke-width="1.0" stroke-linejoin="round" stroke-linecap="butt" d="m14984.438 8972.937l866.6797 1808.0527l-817.8613 1179.0186l-359.34863 4621.801l-800.1494 728.03906l-21.853516 -5195.0703l1484.5332 -2157.8408z" fill-rule="evenodd"/><path fill="#f6b26b" d="m7118.0093 8581.783l1254.7427 1379.5986l4150.4062 2012.0225l342.9209 4465.449l217.46387 248.80664l-797.36426 16.652344l-5513.203 -7304.4434z" fill-rule="evenodd"/><path stroke="#f6b26b" stroke-width="1.0" stroke-linejoin="round" stroke-linecap="butt" d="m7118.0093 8581.783l1254.7427 1379.5986l4150.4062 2012.0225l342.9209 4465.449l217.46387 248.80664l-797.36426 16.652344l-5513.203 -7304.4434z" fill-rule="evenodd"/><path fill="#1c1c1c" d="m5373.2134 13557.946l5206.274 5784.2705l-3768.1562 -7798.2354l-1230.5752 -2293.5117l-634.9131 685.03906z" fill-rule="evenodd"/><path stroke="#1c1c1c" stroke-width="1.0" stroke-linejoin="round" stroke-linecap="butt" d="m5373.2134 13557.946l5206.274 5784.2705l-3768.1562 -7798.2354l-1230.5752 -2293.5117l-634.9131 685.03906z" fill-rule="evenodd"/><path fill="#f6b26b" d="m14991.5 9204.608l117.09375 777.0947l-1338.9844 1963.6436l-21.62793 4689.542l276.54004 13.1875l-96.97656 -4479.539l1249.6943 -2002.0762l150.02441 -168.25879l-265.91504 -841.1406z" fill-rule="evenodd"/><path stroke="#f6b26b" stroke-width="1.0" stroke-linejoin="round" stroke-linecap="butt" d="m14991.5 9204.608l117.09375 777.0947l-1338.9844 1963.6436l-21.62793 4689.542l276.54004 13.1875l-96.97656 -4479.539l1249.6943 -2002.0762l150.02441 -168.25879l-265.91504 -841.1406z" fill-rule="evenodd"/><path fill="#000000" d="m6479.6113 9852.092l1015.2798 493.39648l2955.8677 8017.039l462.27734 975.04297l-333.5791 4.5976562l-4424.607 -8571.549" fill-rule="evenodd"/><path stroke="#1c1c1c" stroke-width="1.0" stroke-linejoin="round" stroke-linecap="butt" d="m6479.6113 9852.092l1015.2798 493.39648l2955.8677 8017.039l462.27734 975.04297l-333.5791 4.5976562l-4424.607 -8571.549" fill-rule="evenodd"/><path fill="#d9d9d9" d="m5317.643 3506.3203l1859.8896 -1485.47l-1223.0234 3481.0632l1347.5771 213.09424l1342.9028 -3415.357l1238.2441 -1188.5879l-1407.1787 4826.9814l3757.751 2252.2417l-877.9131 -2402.7168l2770.3516 -5355.039l429.72656 1673.6195l-838.20215 6144.2656l1329.0264 -1124.0371l-51.085938 -4438.622l665.0576 1474.2676l42.11035 3521.877l-317.0 293.94482l165.46973 861.4116l-1818.8115 1442.3945l-6708.5693 -1313.8955l1021.9844 1117.1523l4288.073 2134.7686l441.97656 5365.925l-2866.0947 -1061.2754l-1690.044 -4417.3l-2450.565 -1224.0l135.8584 -922.2207l-466.57227 723.44336l-1179.4697 -1079.0996l-961.02344 200.20801l-350.98706 -299.21875l977.302 -1942.9263l-233.20996 -523.6875z" fill-rule="evenodd"/><path stroke="#efefef" stroke-width="1.0" stroke-linejoin="round" stroke-linecap="butt" d="m5317.643 3506.3203l1859.8896 -1485.47l-1223.0234 3481.0632l1347.5771 213.09424l1342.9028 -3415.357l1238.2441 -1188.5879l-1407.1787 4826.9814l3757.751 2252.2417l-877.9131 -2402.7168l2770.3516 -5355.039l429.72656 1673.6195l-838.20215 6144.2656l1329.0264 -1124.0371l-51.085938 -4438.622l665.0576 1474.2676l42.11035 3521.877l-317.0 293.94482l165.46973 861.4116l-1818.8115 1442.3945l-6708.5693 -1313.8955l1021.9844 1117.1523l4288.073 2134.7686l441.97656 5365.925l-2866.0947 -1061.2754l-1690.044 -4417.3l-2450.565 -1224.0l135.8584 -922.2207l-466.57227 723.44336l-1179.4697 -1079.0996l-961.02344 200.20801l-350.98706 -299.21875l977.302 -1942.9263l-233.20996 -523.6875z" fill-rule="evenodd"/><path fill="#999999" d="m15114.178 9314.3545l152.20801 629.9346l-1357.9736 2138.9102l-116.41211 5366.4004l261.01074 -308.99414l-9.09082 -5023.3887l1324.5654 -2164.2627z" fill-rule="evenodd"/><path stroke="#999999" stroke-width="1.0" stroke-linejoin="round" stroke-linecap="butt" d="m15114.178 9314.3545l152.20801 629.9346l-1357.9736 2138.9102l-116.41211 5366.4004l261.01074 -308.99414l-9.09082 -5023.3887l1324.5654 -2164.2627z" fill-rule="evenodd"/><path fill="#999999" d="m6039.9995 2926.399l-816.0 664.00146l-1679.9077 3400.249l810.26074 1659.9238l-523.3462 -1688.9077l1720.624 -3473.6272z" fill-rule="evenodd"/><path stroke="#999999" stroke-width="1.0" stroke-linejoin="round" stroke-linecap="butt" d="m6039.9995 2926.399l-816.0 664.00146l-1679.9077 3400.249l810.26074 1659.9238l-523.3462 -1688.9077l1720.624 -3473.6272z" fill-rule="evenodd"/><path fill="#999999" d="m7063.5825 7377.5107l-189.05518 -1019.72363l1325.4717 -3629.7861l1560.001 -1512.001l-1045.7832 1277.0391l-1603.1616 4446.306z" fill-rule="evenodd"/><path stroke="#999999" stroke-width="1.0" stroke-linejoin="round" stroke-linecap="butt" d="m7063.5825 7377.5107l-189.05518 -1019.72363l1325.4717 -3629.7861l1560.001 -1512.001l-1045.7832 1277.0391l-1603.1616 4446.306z" fill-rule="evenodd"/><path fill="#999999" d="m12732.913 8033.1636l-979.2246 -1890.9087l2136.2744 -5275.1704l-3850.1318 4749.22l2779.208 3413.4492z" fill-rule="evenodd"/><path stroke="#999999" stroke-width="1.0" stroke-linejoin="round" stroke-linecap="butt" d="m12732.913 8033.1636l-979.2246 -1890.9087l2136.2744 -5275.1704l-3850.1318 4749.22l2779.208 3413.4492z" fill-rule="evenodd"/><path fill="#999999" d="m7031.9355 8345.268l-1133.2778 993.8789l1158.5952 -298.6172l6455.166 1197.7783l-6304.3135 -1351.5693l366.9585 -688.709z" fill-rule="evenodd"/><path stroke="#999999" stroke-width="1.0" stroke-linejoin="round" stroke-linecap="butt" d="m7031.9355 8345.268l-1133.2778 993.8789l1158.5952 -298.6172l6455.166 1197.7783l-6304.3135 -1351.5693l366.9585 -688.709z" fill-rule="evenodd"/><path fill="#999999" d="m5907.5737 10001.48l-142.94092 545.2383l-167.0791 377.28223l2396.8413 1299.6533l1626.3716 4319.34l3155.2344 1050.6074l-2906.4229 -1268.0664l-1427.9775 -4403.283l-2358.7861 -1142.1709z" fill-rule="evenodd"/><path stroke="#999999" stroke-width="1.0" stroke-linejoin="round" stroke-linecap="butt" d="m5907.5737 10001.48l-142.94092 545.2383l-167.0791 377.28223l2396.8413 1299.6533l1626.3716 4319.34l3155.2344 1050.6074l-2906.4229 -1268.0664l-1427.9775 -4403.283l-2358.7861 -1142.1709z" fill-rule="evenodd"/><path fill="#535353" d="m2827.5918 12251.691l0 0c138.56812 -1353.3271 859.2307 -2388.1348 1609.645 -2311.3066l0 0c360.36133 36.89453 679.5293 330.4463 887.2905 816.0762c207.76123 485.63086 287.09717 1123.5596 220.5542 1773.4512l0 0c-138.56836 1353.3281 -859.23096 2388.1348 -1609.645 2311.3066l0 0c-750.41406 -76.828125 -1246.4131 -1236.1992 -1107.8447 -2589.5273z" fill-rule="evenodd"/><path stroke="#535353" stroke-width="1.0" stroke-linejoin="round" stroke-linecap="butt" d="m2827.5918 12251.691l0 0c138.56812 -1353.3271 859.2307 -2388.1348 1609.645 -2311.3066l0 0c360.36133 36.89453 679.5293 330.4463 887.2905 816.0762c207.76123 485.63086 287.09717 1123.5596 220.5542 1773.4512l0 0c-138.56836 1353.3281 -859.23096 2388.1348 -1609.645 2311.3066l0 0c-750.41406 -76.828125 -1246.4131 -1236.1992 -1107.8447 -2589.5273z" fill-rule="evenodd"/><path fill="#666666" d="m2090.8684 12168.149l0 0c144.67554 -1413.0352 1023.469 -2480.5605 1962.8401 -2384.3857l0 0c451.10205 46.18457 856.1289 360.03613 1125.9795 872.51074c269.8501 512.47363 382.41943 1181.5918 312.94385 1860.1553l0 0c-144.67578 1413.0342 -1023.46924 2480.5605 -1962.8403 2384.3857l0 0c-939.37085 -96.174805 -1583.5989 -1319.6309 -1438.9231 -2732.666z" fill-rule="evenodd"/><path stroke="#323232" stroke-width="1.0" stroke-linejoin="round" stroke-linecap="butt" d="m2090.8684 12168.149l0 0c144.67554 -1413.0352 1023.469 -2480.5605 1962.8401 -2384.3857l0 0c451.10205 46.18457 856.1289 360.03613 1125.9795 872.51074c269.8501 512.47363 382.41943 1181.5918 312.94385 1860.1553l0 0c-144.67578 1413.0342 -1023.46924 2480.5605 -1962.8403 2384.3857l0 0c-939.37085 -96.174805 -1583.5989 -1319.6309 -1438.9231 -2732.666z" fill-rule="evenodd"/><path fill="#535353" d="m2109.1575 12181.47l0 0c144.67578 -1413.0352 887.8933 -2494.4443 1660.023 -2415.3965l0 0c370.7898 37.960938 698.7937 343.9248 911.85474 850.584c213.06152 506.6582 293.72656 1172.5098 224.25098 1851.0723l0 0c-144.67578 1413.0352 -887.89307 2494.4443 -1660.0227 2415.3955l0 0c-772.12964 -79.04785 -1280.7815 -1288.6211 -1136.106 -2701.6553z" fill-rule="evenodd"/><path stroke="#535353" stroke-width="1.0" stroke-linejoin="round" stroke-linecap="butt" d="m2109.1575 12181.47l0 0c144.67578 -1413.0352 887.8933 -2494.4443 1660.023 -2415.3965l0 0c370.7898 37.960938 698.7937 343.9248 911.85474 850.584c213.06152 506.6582 293.72656 1172.5098 224.25098 1851.0723l0 0c-144.67578 1413.0352 -887.89307 2494.4443 -1660.0227 2415.3955l0 0c-772.12964 -79.04785 -1280.7815 -1288.6211 -1136.106 -2701.6553z" fill-rule="evenodd"/><path fill="#999999" d="m3784.3228 7902.0107l-1150.7166 1702.9844l635.81104 457.07617l929.78735 -238.83789l1256.7954 879.166l-1163.6167 -1279.5303l-1060.6406 234.94434z" fill-rule="evenodd"/><path stroke="#999999" stroke-width="1.0" stroke-linejoin="round" stroke-linecap="butt" d="m3784.3228 7902.0107l-1150.7166 1702.9844l635.81104 457.07617l929.78735 -238.83789l1256.7954 879.166l-1163.6167 -1279.5303l-1060.6406 234.94434z" fill-rule="evenodd"/><path fill="#999999" d="m13696.96 8397.51l35.19336 1880.7305l155.49902 -832.61035z" fill-rule="evenodd"/><path stroke="#666666" stroke-width="1.0" stroke-linejoin="round" stroke-linecap="butt" d="m13696.96 8397.51l35.19336 1880.7305l155.49902 -832.61035z" fill-rule="evenodd"/><path fill="#999999" d="m13808.126 10256.782l1719.874 -1512.7822l48.125977 104.78223z" fill-rule="evenodd"/><path stroke="#999999" stroke-width="1.0" stroke-linejoin="round" stroke-linecap="butt" d="m13808.126 10256.782l1719.874 -1512.7822l48.125977 104.78223z" fill-rule="evenodd"/><path fill="#999999" d="m15696.086 7698.1367l-311.2002 71.88037l-16.95996 207.91992z" fill-rule="evenodd"/><path stroke="#999999" stroke-width="1.0" stroke-linejoin="round" stroke-linecap="butt" d="m15696.086 7698.1367l-311.2002 71.88037l-16.95996 207.91992z" fill-rule="evenodd"/><path fill="#999999" d="m7288.1655 9245.333l664.084 827.541l4367.9995 2136.0l463.75098 5384.7275l-408.0 -5372.2686l-4303.7505 -2148.459l-840.0 -1056.0l-120.0 24.0z" fill-rule="evenodd"/><path stroke="#999999" stroke-width="1.0" stroke-linejoin="round" stroke-linecap="butt" d="m7288.1655 9245.333l664.084 827.541l4367.9995 2136.0l463.75098 5384.7275l-408.0 -5372.2686l-4303.7505 -2148.459l-840.0 -1056.0l-120.0 24.0z" fill-rule="evenodd"/></g></svg>