<svg version="1.1" viewBox="0.0 0.0 200.0 200.0" fill="none" stroke="none" stroke-linecap="square" stroke-miterlimit="10" xmlns:xlink="http://www.w3.org/1999/xlink" xmlns="http://www.w3.org/2000/svg"><clipPath id="p.0"><path d="m0 0l200.0 0l0 200.0l-200.0 0l0 -200.0z" clip-rule="nonzero"/></clipPath><g clip-path="url(#p.0)"><path fill="#000000" fill-opacity="0.0" d="m0 0l200.0 0l0 200.0l-200.0 0z" fill-rule="evenodd"/><path fill="#6d9eeb" d="m0 100.0l0 0c0 -55.228474 44.771526 -100.0 100.0 -100.0l0 0c26.521652 0 51.957047 10.535684 70.71068 29.289322c18.753632 18.75364 29.289322 44.189026 29.289322 70.71068l0 0c0 55.22847 -44.77153 100.0 -100.0 100.0l0 0c-55.228474 0 -100.0 -44.77153 -100.0 -100.0z" fill-rule="evenodd"/><path stroke="#000000" stroke-width="1.0" stroke-linejoin="round" stroke-linecap="butt" d="m0 100.0l0 0c0 -55.228474 44.771526 -100.0 100.0 -100.0l0 0c26.521652 0 51.957047 10.535684 70.71068 29.289322c18.753632 18.75364 29.289322 44.189026 29.289322 70.71068l0 0c0 55.22847 -44.77153 100.0 -100.0 100.0l0 0c-55.228474 0 -100.0 -44.77153 -100.0 -100.0z" fill-rule="evenodd"/><path fill="#ffd966" d="m53.98825 88.83807l-17.098919 15.284035l34.19784 33.497353l12.214821 43.25305l32.102478 0l7.6758804 -44.554016l37.33783 -31.544487l-16.051239 -17.561409z" fill-rule="evenodd"/><path stroke="#000000" stroke-width="1.0" stroke-linejoin="round" stroke-linecap="butt" d="m53.98825 88.83807l-17.098919 15.284035l34.19784 33.497353l12.214821 43.25305l32.102478 0l7.6758804 -44.554016l37.33783 -31.544487l-16.051239 -17.561409z" fill-rule="evenodd"/><path fill="#999999" d="m42.28609 71.20071l33.638836 -22.594406l44.229973 0l35.475487 22.292656l-17.992111 12.394615l-78.55676 -0.29890442z" fill-rule="evenodd"/><path stroke="#000000" stroke-width="1.0" stroke-linejoin="round" stroke-linecap="butt" d="m42.28609 71.20071l33.638836 -22.594406l44.229973 0l35.475487 22.292656l-17.992111 12.394615l-78.55676 -0.29890442z" fill-rule="evenodd"/><path fill="#b7b7b7" d="m60.57863 90.789375l-9.89679 -7.4954147l-15.141155 19.272293l45.32748 35.453033l0.72953796 40.97284l4.022072 1.6311646l5.484352 0l-0.7327423 -53.01445l-44.597942 -25.688797z" fill-rule="evenodd"/><path stroke="#000000" stroke-width="1.0" stroke-linejoin="round" stroke-linecap="butt" d="m60.57863 90.789375l-9.89679 -7.4954147l-15.141155 19.272293l45.32748 35.453033l0.72953796 40.97284l4.022072 1.6311646l5.484352 0l-0.7327423 -53.01445l-44.597942 -25.688797z" fill-rule="evenodd"/><path fill="#b7b7b7" d="m137.33774 90.79139l11.695038 -5.0984726l17.000214 16.87535l-49.685524 35.450195l-0.7999344 40.972824l-4.4092407 1.6311646l-6.012306 0l0.8031311 -53.014442l47.004143 -25.520844z" fill-rule="evenodd"/><path stroke="#000000" stroke-width="1.0" stroke-linejoin="round" stroke-linecap="butt" d="m137.33774 90.79139l11.695038 -5.0984726l17.000214 16.87535l-49.685524 35.450195l-0.7999344 40.972824l-4.4092407 1.6311646l-6.012306 0l0.8031311 -53.014442l47.004143 -25.520844z" fill-rule="evenodd"/><path fill="#efefef" d="m52.78319 88.091774l-14.686794 15.998566l47.5225 26.665215l0.72953796 53.66066l-7.3050003 12.033081l-24.126019 -26.66806l-4.0252686 -36.09926l-17.17939 -23.417107l-5.119581 -3.9000015l19.98876 -21.569595z" fill-rule="evenodd"/><path stroke="#000000" stroke-width="1.0" stroke-linejoin="round" stroke-linecap="butt" d="m52.78319 88.091774l-14.686794 15.998566l47.5225 26.665215l0.72953796 53.66066l-7.3050003 12.033081l-24.126019 -26.66806l-4.0252686 -36.09926l-17.17939 -23.417107l-5.119581 -3.9000015l19.98876 -21.569595z" fill-rule="evenodd"/><path fill="#efefef" d="m145.43526 87.493576l14.373215 16.385712l-47.5225 26.66806l-0.7295456 53.66066l7.3082047 12.033081l24.126015 -26.66806l4.0220795 -36.099243l17.182587 -23.417114l5.116379 -3.9000092l-19.979156 -21.962433z" fill-rule="evenodd"/><path stroke="#000000" stroke-width="1.0" stroke-linejoin="round" stroke-linecap="butt" d="m145.43526 87.493576l14.373215 16.385712l-47.5225 26.66806l-0.7295456 53.66066l7.3082047 12.033081l24.126015 -26.66806l4.0220795 -36.099243l17.182587 -23.417114l5.116379 -3.9000092l-19.979156 -21.962433z" fill-rule="evenodd"/><path fill="#f3f3f3" d="m36.262268 41.19385l-9.871191 36.538067l5.4843483 11.005348l8.40571 -5.2830353l59.58551 31.255035l0 -124.5847l0 -9.683627l-15.720306 89.807655l-6.21389 11.883926l-14.254833 -5.2830353l8.405712 -62.070778l-12.063011 16.28838l-9.867989 36.977356l-11.333473 -4.4005966z" fill-rule="evenodd"/><path stroke="#000000" stroke-width="1.0" stroke-linejoin="round" stroke-linecap="butt" d="m36.262268 41.19385l-9.871191 36.538067l5.4843483 11.005348l8.40571 -5.2830353l59.58551 31.255035l0 -124.5847l0 -9.683627l-15.720306 89.807655l-6.21389 11.883926l-14.254833 -5.2830353l8.405712 -62.070778l-12.063011 16.28838l-9.867989 36.977356l-11.333473 -4.4005966z" fill-rule="evenodd"/><path fill="#f3f3f3" d="m161.88904 41.19385l9.625397 36.538067l-5.3477936 11.005348l-8.196411 -5.2830353l-58.10182 31.255035l0 -124.5847l0 -9.683627l15.328873 89.807655l6.059166 11.883926l13.899879 -5.2830353l-8.1964035 -62.070778l11.762642 16.28838l9.622269 36.977356l11.05127 -4.4005966z" fill-rule="evenodd"/><path stroke="#000000" stroke-width="1.0" stroke-linejoin="round" stroke-linecap="butt" d="m161.88904 41.19385l9.625397 36.538067l-5.3477936 11.005348l-8.196411 -5.2830353l-58.10182 31.255035l0 -124.5847l0 -9.683627l15.328873 89.807655l6.059166 11.883926l13.899879 -5.2830353l-8.1964035 -62.070778l11.762642 16.28838l9.622269 36.977356l11.05127 -4.4005966z" fill-rule="evenodd"/></g></svg>